<?xml version="1.0" standalone="no"?>
<!DOCTYPE svg PUBLIC "-//W3C//DTD SVG 20010904//EN"
 "http://www.w3.org/TR/2001/REC-SVG-20010904/DTD/svg10.dtd">
<svg version="1.0" xmlns="http://www.w3.org/2000/svg"
 width="720.000000pt" height="720.000000pt" viewBox="0 0 720.000000 720.000000"
 preserveAspectRatio="xMidYMid meet">
<metadata>
Created by potrace 1.16, written by Peter Selinger 2001-2019
</metadata>
<g transform="translate(0.000000,720.000000) scale(0.100000,-0.100000)"
fill="#000000" stroke="none">
<path d="M820 3700 l0 -2920 510 0 510 0 0 2920 0 2920 -510 0 -510 0 0 -2920z
m1000 0 l0 -2900 -495 0 -495 0 0 2900 0 2900 495 0 495 0 0 -2900z"/>
<path d="M337 5323 c-13 -12 -7 -41 9 -47 45 -17 93 6 80 39 -5 15 -76 22 -89
8z m57 -9 c22 -9 10 -24 -20 -24 -25 0 -33 15 -11 23 6 3 13 6 14 6 1 1 8 -2
17 -5z"/>
<path d="M510 5270 c0 -5 16 -10 35 -10 l35 0 0 -739 0 -740 -37 -4 -38 -4 38
-1 37 -2 0 -739 0 -740 -37 -4 -38 -4 38 -1 37 -2 0 -740 0 -740 -35 0 c-19 0
-35 -4 -35 -10 0 -5 20 -10 45 -10 l45 0 0 2250 0 2250 -45 0 c-25 0 -45 -4
-45 -10z"/>
<path d="M334 5245 c-8 -20 2 -45 19 -45 8 0 19 12 26 27 10 21 14 23 24 13 9
-10 9 -14 0 -17 -18 -6 -16 -23 1 -23 16 0 31 34 21 50 -10 16 -85 12 -91 -5z
m36 -15 c0 -5 -4 -10 -10 -10 -5 0 -10 5 -10 10 0 6 5 10 10 10 6 0 10 -4 10
-10z"/>
<path d="M2022 2583 l3 -1798 513 -3 512 -2 0 1800 0 1800 -515 0 -515 0 2
-1797z m1008 2 l0 -1785 -495 0 -495 0 0 1785 0 1785 495 0 495 0 0 -1785z"/>
<path d="M337 3833 c-13 -12 -7 -41 9 -47 45 -17 93 6 80 39 -5 15 -76 22 -89
8z m57 -9 c22 -9 10 -24 -20 -24 -25 0 -33 15 -11 23 6 3 13 6 14 6 1 1 8 -2
17 -5z"/>
<path d="M334 3755 c-9 -21 3 -45 21 -45 18 0 20 17 3 23 -7 2 -10 8 -5 12 4
5 16 -1 27 -13 29 -31 40 -27 39 11 -1 25 -3 27 -6 8 l-5 -23 -14 21 c-17 24
-52 28 -60 6z"/>
<path d="M337 2333 c-13 -12 -7 -41 9 -47 45 -17 93 6 80 39 -5 15 -76 22 -89
8z m57 -9 c22 -9 10 -24 -20 -24 -25 0 -33 15 -11 23 6 3 13 6 14 6 1 1 8 -2
17 -5z"/>
<path d="M330 2261 c0 -5 7 -14 15 -21 10 -9 15 -9 15 -1 0 6 14 11 30 11 17
0 30 5 30 10 0 6 -20 10 -45 10 -25 0 -45 -4 -45 -9z"/>
<path d="M3230 1240 l0 -460 513 2 512 3 0 455 0 455 -512 3 -513 2 0 -460z
m1010 0 l0 -440 -495 0 -495 0 0 440 0 440 495 0 495 0 0 -440z"/>
<path d="M4440 1240 l0 -460 510 0 510 0 0 460 0 460 -510 0 -510 0 0 -460z
m1010 0 l0 -440 -495 0 -495 0 0 440 0 440 495 0 495 0 0 -440z"/>
<path d="M5650 865 l0 -85 510 0 510 0 0 85 0 85 -510 0 -510 0 0 -85z m1010
5 l0 -70 -500 0 -500 0 0 63 c0 35 3 67 7 70 3 4 228 7 500 7 l493 0 0 -70z"/>
<path d="M337 813 c-13 -12 -7 -41 9 -47 45 -17 93 6 80 39 -5 15 -76 22 -89
8z m57 -9 c22 -9 10 -24 -20 -24 -25 0 -33 15 -11 23 6 3 13 6 14 6 1 1 8 -2
17 -5z"/>
<path d="M1296 555 c-17 -46 6 -94 39 -81 12 4 15 17 13 48 -2 35 -7 44 -24
46 -13 2 -24 -4 -28 -13z m38 -20 c7 -19 -3 -47 -15 -39 -12 7 -12 54 0 54 5
0 11 -7 15 -15z"/>
<path d="M2520 555 c-9 -10 -9 -15 -1 -15 6 0 11 -13 11 -30 0 -16 5 -30 10
-30 6 0 10 20 10 45 0 47 -9 56 -30 30z"/>
<path d="M3714 555 c-8 -21 5 -33 16 -15 5 8 12 11 16 7 4 -4 -2 -16 -14 -27
-31 -29 -27 -40 11 -39 25 1 27 3 8 6 l-23 5 22 15 c28 19 23 57 -8 61 -13 2
-25 -3 -28 -13z"/>
<path d="M4927 564 c-14 -14 -6 -31 20 -43 21 -10 23 -14 13 -24 -10 -9 -14
-9 -17 1 -6 17 -23 15 -23 -2 0 -18 39 -31 52 -18 5 5 8 27 6 48 -2 30 -8 40
-23 42 -12 2 -24 0 -28 -4z m33 -24 c0 -5 -4 -10 -10 -10 -5 0 -10 5 -10 10 0
6 5 10 10 10 6 0 10 -4 10 -10z"/>
<path d="M6147 541 c-22 -37 -21 -41 2 -41 11 0 21 -4 23 -9 2 -5 9 -3 16 5 7
8 8 14 2 14 -5 0 -10 14 -10 30 0 38 -11 38 -33 1z m23 -21 c0 -5 -5 -10 -11
-10 -5 0 -7 5 -4 10 3 6 8 10 11 10 2 0 4 -4 4 -10z"/>
</g>
</svg>
